<?xml version="1.0" encoding="utf-8"?>
<!-- Generator: Adobe Illustrator 22.0.1, SVG Export Plug-In . SVG Version: 6.00 Build 0)  -->
<svg version="1.1" id="Layer_1" xmlns="http://www.w3.org/2000/svg" xmlns:xlink="http://www.w3.org/1999/xlink" x="0px" y="0px"
	 viewBox="0 0 1024 1024" style="enable-background:new 0 0 1024 1024;" xml:space="preserve">
<style type="text/css">
	.st0{fill:#021D26;}
	.st1{fill:#3CBFF0;}
	.st2{fill:none;}
</style>
<g>
	<g>
		<path class="st0" d="M53.7,54.7h916.7v914.5H53.7V54.7z"/>
		<path class="st1" d="M12,12v1000h1000V12H12z M53.7,54.7h916.7v914.5H53.7V54.7z M253.7,246.2c0-3,5.8-5.1,9.2-5.1
			c26.7-1.3,66.2-2.1,107.5-2.1c115.4,0,160.4,65,160.4,148.3c0,108.5-76.7,155.1-170.8,155.1c-15.8,0-21.2-0.9-32.5-0.9v164.1
			c0,3.4-1.3,5.1-5,5.1h-63.8c-3.3,0-5-1.3-5-5.1V246.2L253.7,246.2z M327.8,473.1c9.6,0.9,17.1,0.9,33.8,0.9
			c48.7,0,94.6-17.5,94.6-85.5c0-54.3-32.9-81.6-88.3-81.6c-16.7,0-32.5,0.9-40,1.3L327.8,473.1L327.8,473.1z M686.2,422.3
			c-32.9,0-44.2,17.1-44.2,31.2c0,15.4,7.5,26.1,51.7,49.6c65.4,32.5,85.8,63.7,85.8,109.4c0,68.4-50.8,105.1-119.6,105.1
			c-36.3,0-67.5-7.7-85.4-18.4c-2.9-1.3-3.3-3.4-3.3-6.8v-62.8c0-4.3,2.1-5.6,5-3.4c26.3,17.5,56.3,25.2,83.8,25.2
			c32.9,0,46.7-14.1,46.7-33.3c0-15.4-9.6-29.1-51.7-51.3c-59.2-29.1-83.8-58.5-83.8-107.7c0-55.1,42.1-100.9,115-100.9
			c35.8,0,60.8,5.6,74.6,12c3.3,2.1,4.2,5.6,4.2,8.5v58.5c0,3.4-2.1,5.6-6.3,4.3C740.3,429.5,713.3,422.3,686.2,422.3L686.2,422.3z"
			/>
	</g>
	<rect class="st2" width="1024" height="1024"/>
</g>
</svg>
