<?xml version="1.0" encoding="utf-8"?>
<!-- Generator: Adobe Illustrator 22.0.1, SVG Export Plug-In . SVG Version: 6.00 Build 0)  -->
<svg version="1.1" id="Layer_1" xmlns="http://www.w3.org/2000/svg" xmlns:xlink="http://www.w3.org/1999/xlink" x="0px" y="0px"
	 viewBox="0 0 1024 1024" style="enable-background:new 0 0 1024 1024;" xml:space="preserve">
<style type="text/css">
	.st0{fill:#24170E;}
	.st1{fill:#EF7B1A;}
	.st2{fill:none;}
</style>
<g>
	<g>
		<path class="st0" d="M53.7,54.7h916.7v914.5H53.7V54.7z"/>
		<path class="st1" d="M12,12v1000h1000V12H12z M53.7,54.7h916.7v914.5H53.7V54.7z"/>
		<path class="st1" d="M359.1,578.2l-32.9,128.2c-0.8,3.4-2.1,4.3-6.3,4.3h-61.3c-4.2,0-5-1.3-4.2-6.4l118.3-424.8
			c2.1-7.7,3.3-14.5,4.2-35.5c0-3,1.3-4.3,3.3-4.3h87.5c2.9,0,4.2,0.9,5,4.3l132.5,461.1c0.8,3.4,0,5.6-3.3,5.6h-69.2
			c-3.3,0-5.4-0.9-6.3-3.8L492,578.2H359.1L359.1,578.2z M474.9,509c-11.7-47.4-39.2-150.9-49.6-200.9h-0.8
			c-8.8,50-30.8,134.6-48.3,200.9H474.9z M662.4,271.4c0-27.4,18.8-43.6,42.5-43.6c25.4,0,42.5,17.5,42.5,43.6
			c0,28.2-17.9,43.6-43.3,43.6C679.9,315,662.4,299.6,662.4,271.4L662.4,271.4z M667.4,368.4c0-3.4,1.3-5.1,5-5.1h65.4
			c3.3,0,5,1.3,5,5.1v337.2c0,3.4-0.8,5.1-5,5.1h-64.6c-4.2,0-5.4-2.1-5.4-5.6V368.4H667.4z"/>
	</g>
	<rect class="st2" width="1024" height="1024"/>
</g>
</svg>
