<?xml version="1.0" encoding="utf-8"?>
<!-- Generator: Adobe Illustrator 22.0.1, SVG Export Plug-In . SVG Version: 6.00 Build 0)  -->
<svg version="1.1" id="Layer_1" xmlns="http://www.w3.org/2000/svg" xmlns:xlink="http://www.w3.org/1999/xlink" x="0px" y="0px"
	 viewBox="0 0 1024 1024" style="enable-background:new 0 0 1024 1024;" xml:space="preserve">
<style type="text/css">
	.st0{fill:#573E7D;}
	.st1{fill:#FFFFFF;}
	.st2{fill:none;}
</style>
<g>
	<g>
		<path class="st0" d="M1012,845.3c0,91.7-75,166.7-166.7,166.7H178.7C87,1012,12,937,12,845.3V178.7C12,87,87,12,178.7,12h666.7
			C937,12,1012,87,1012,178.7V845.3z"/>
		<path class="st1" d="M283.7,229.3h283.5c52.3,0,94.3,11.9,125.8,35.9c31.5,24,47.4,60.1,47.4,108.7c0,29.4-7.2,54.6-21.6,75.5
			c-14.4,20.9-35,37.3-61.8,48.7v1.6c35.9,7.7,63.2,24.7,81.7,51c18.5,26.5,27.8,59.5,27.8,99.3c0,22.9-4.1,44.3-12.3,64.1
			c-8.2,19.9-20.9,37.1-38.4,51.5c-17.5,14.4-39.7,25.8-67,34.3s-59.6,12.7-97.2,12.7h-268L283.7,229.3L283.7,229.3z M385.9,473.6
			h166.7c24.5,0,44.9-6.9,61.3-20.9c16.3-14.1,24.5-34,24.5-60.1c0-29.4-7.4-50.2-22.1-62.1c-14.7-11.9-35.9-18-63.7-18H385.9V473.6
			L385.9,473.6z M385.9,729.3h180.6c31,0,55.2-8,72.2-24.2c17.2-16,25.8-38.9,25.8-68.3c0-28.9-8.5-51-25.8-66.7
			c-17.3-15.7-41.2-23.2-72.2-23.2H385.9V729.3z"/>
	</g>
	<rect class="st2" width="1024" height="1024"/>
</g>
</svg>
