<?xml version="1.0" encoding="utf-8"?>
<!-- Generator: Adobe Illustrator 22.0.1, SVG Export Plug-In . SVG Version: 6.00 Build 0)  -->
<svg version="1.1" id="Layer_1" xmlns="http://www.w3.org/2000/svg" xmlns:xlink="http://www.w3.org/1999/xlink" x="0px" y="0px"
	 viewBox="0 0 1024 1024" style="enable-background:new 0 0 1024 1024;" xml:space="preserve">
<style type="text/css">
	.st0{fill:#0B77BD;}
	.st1{fill:#2997D4;}
	.st2{fill:#FFFFFF;}
	.st3{fill:#EFEEEE;}
	.st4{fill:none;}
</style>
<g>
	<g>
		<path class="st0" d="M959.4,12H64.6l78.9,894.7L512,1012l368.4-105.3L959.4,12L959.4,12z"/>
		<path class="st1" d="M512,90.9v839.5l294.7-84.2l65.8-755.3H512z"/>
		<path class="st2" d="M751.5,222.5H512v105.3h128.9l-7.9,105.3H512v105.3h115.8l-7.9,118.4L512,693.6v110.5l207.9-68.4l18.4-302.6
			l0,0L751.5,222.5z"/>
		<path class="st3" d="M512,222.5v105.3H277.8l-7.9-105.3H512z M390.9,433.1l5.3,105.3H512V433.1H390.9z M401.5,590.9H296.2
			l7.9,144.7L512,804.1V693.6l-107.9-36.8L401.5,590.9z"/>
	</g>
	<rect class="st4" width="1024" height="1024"/>
</g>
</svg>
