<?xml version="1.0" encoding="utf-8"?>
<!-- Generator: Adobe Illustrator 22.0.1, SVG Export Plug-In . SVG Version: 6.00 Build 0)  -->
<svg version="1.1" id="Layer_1" xmlns="http://www.w3.org/2000/svg" xmlns:xlink="http://www.w3.org/1999/xlink" x="0px" y="0px"
	 viewBox="0 0 1024 1024" style="enable-background:new 0 0 1024 1024;" xml:space="preserve">
<style type="text/css">
	.st0{fill:#FFD703;}
	.st1{fill:#020203;}
	.st2{fill:none;}
</style>
<g>
	<g>
		<path class="st0" d="M12,1012V12h1000v1000H12z"/>
		<path class="st1" d="M665.8,760.5c19.2,31.2,40.1,61.1,84.4,61.1c37.2,0,56.7-18.5,56.7-44c0-30.6-20.2-41.4-61.1-59.2l-22.4-9.6
			c-64.7-27.4-107.7-61.8-107.7-134.5c0-66.9,51.3-117.9,131.3-117.9c57,0,98,19.8,127.6,71.5l-69.8,44.6
			c-15.4-27.4-32-38.3-57.7-38.3c-26.3,0-42.9,16.6-42.9,38.3c0,26.8,16.7,37.6,55.1,54.2l22.4,9.6
			c76.3,32.5,119.3,65.6,119.3,140.2c0,80.3-63.4,124.4-148.6,124.4c-83.3,0-130.6-41.8-156.9-93.6L665.8,760.5z M344,762.8
			c14.1,25.2,35.4,44.5,66.1,44.5c29.4,0,46.3-11.6,46.3-56.7V456.4H549v308.4c0,93.5-54.2,136.1-133.5,136.1
			c-71.6,0-123.3-48.5-144.3-93.6L344,762.8z"/>
	</g>
	<rect class="st2" width="1024" height="1024"/>
</g>
</svg>
