<?xml version="1.0" encoding="utf-8"?>
<!-- Generator: Adobe Illustrator 23.0.3, SVG Export Plug-In . SVG Version: 6.00 Build 0)  -->
<svg version="1.1" id="Layer_1" xmlns="http://www.w3.org/2000/svg" xmlns:xlink="http://www.w3.org/1999/xlink" x="0px" y="0px"
	 viewBox="0 0 1024 1024" style="enable-background:new 0 0 1024 1024;" xml:space="preserve">
<style type="text/css">
	.st0{fill:#0A69AD;}
	.st1{fill:#FFFFFF;}
	.st2{fill:none;}
</style>
<g>
	<path class="st0" d="M231.2,174.4c-57.2,83.7-50.1,192.6-6.5,281.4l3.2,6.3l2.2,4c0.4,0.8,0.9,1.5,1.3,2.3c0.8,1.4,1.5,2.7,2.2,4.2
		l4.2,7.3l2.4,4l4.8,7.7l2.2,3.2c2.2,3.5,4.6,6.9,7,10.3c0.1,0.1,0.1,0.2,0.2,0.3c0.4,0.6,0.8,1,1,1.6c2.1,2.9,4.3,5.8,6.5,8.7
		l2.4,3.1l5.9,7.4l2.3,2.7c2.6,3.2,5.4,6.4,8.2,9.5l0.2,0.2c0.1,0.1,0.2,0.2,0.3,0.4c2.7,3,5.5,6,8.3,9l2.6,2.7l6.7,6.7l2.7,2.6
		c3,2.8,6,5.7,9.2,8.5l1.7,1.5l8.3,7.2l3.4,2.8l6.9,5.4l3.7,2.8l10.6,7.7c0.3,0.2,0.5,0.4,0.8,0.6c2.5,1.7,5,3.4,7.6,5.1l3.3,2.2
		l11.8,7.4l3.3,1.9l8.9,5.1c1.6,0.9,3.3,1.7,4.9,2.6l6.3,3.2l1.4,0.8l2.6,1.3l10.1,4.7l2.2,1c3.9,1.7,7.7,3.4,11.7,5l2.8,1.1
		l11.1,4.2l1.4,0.5c4.1,1.4,8.2,2.8,12.4,4.2l2.9,0.9c4.3,1.3,8.4,2.8,12.8,3.7C740,703,820.3,482.3,820.3,482.3
		c-67.5,89.5-187.2,113.1-300.6,86.9c-4.3-1-8.5-2.4-12.7-3.6l-3.1-1c-4.1-1.3-8.1-2.6-12.2-4.1l-1.7-0.7c-3.6-1.3-7.2-2.6-10.8-4.1
		l-3-1.2c-3.9-1.6-7.7-3.2-11.6-4.9l-2.4-1l-9.8-4.6l-2.8-1.4c-2.6-1.3-5.1-2.6-7.6-4l-5-2.7c-3-1.7-6-3.4-9.1-5.2l-3-1.7
		c-4-2.4-7.9-4.9-11.8-7.4c-1-0.7-2.1-1.4-3.2-2.2l-8.4-5.7l-2.7-2l-7.9-5.9l-3.5-2.7l-7.2-5.7l-3.2-2.6l-8.9-7.6
		c-0.3-0.3-0.7-0.6-1-0.9c-3.2-2.8-6.3-5.8-9.4-8.7l-2.6-2.6l-6.7-6.7l-2.6-2.7c-2.8-2.9-5.6-5.9-8.3-8.9c-0.1-0.2-0.3-0.3-0.4-0.5
		c-2.8-3.2-5.7-6.4-8.4-9.7l-2.2-2.6l-6-7.7l-2.2-2.8l-7-9.5c-63-87.5-85.5-208.2-35.3-307.3 M408.7,103.8
		c-41.4,60.6-39.1,141.8-6.8,205.8c5.4,10.8,11.5,21.2,18.3,31.1c6.2,9.1,13,19.8,21.3,27c2.9,3.2,6,6.5,9.3,9.8
		c0.8,0.9,1.6,1.6,2.5,2.5c3.1,3,6.2,6,9.5,9c0.1,0.1,0.3,0.3,0.4,0.4c3.7,3.2,7.4,6.3,11.2,9.5l2.6,2c3.8,2.9,7.7,5.9,11.6,8.6
		c0.1,0.1,0.2,0.2,0.3,0.3c1.7,1.2,3.5,2.4,5.3,3.6c0.9,0.6,1.6,1.1,2.5,1.7c2.8,1.9,5.7,3.6,8.6,5.4l1.2,0.8l7.6,4.3
		c0.9,0.5,1.8,0.9,2.7,1.4l5.4,2.8c0.3,0.1,0.6,0.3,0.8,0.4c3.7,1.8,7.3,3.6,11.1,5.3c0.8,0.4,1.6,0.7,2.5,1c3,1.3,6,2.6,9.1,3.8
		l3.9,1.4c2.7,1,5.6,2,8.3,2.9l3.8,1.2c4,1.2,7.9,2.8,12,3.6C786.8,485.4,836.1,318,836.1,318c-44.4,65.1-130.5,96.3-222.3,72
		c-4.1-1-8.1-2.3-12.1-3.6c-1.2-0.4-2.5-0.8-3.6-1c-2.8-0.9-5.7-1.9-8.4-2.9l-3.8-1.4c-3-1-6-2.5-9.1-3.8c-0.9-0.4-1.6-0.7-2.5-1
		c-3.8-1.6-7.5-3.4-11.2-5.3c-1.9-0.9-3.8-1.9-5.6-2.9l-3.2-1.7c-2.4-1.3-4.7-2.6-7.1-4.1l-1.7-1c-2.9-1.7-5.8-3.5-8.5-5.3
		c-0.9-0.6-1.7-1-2.6-1.8l-5.6-3.8c-3.9-2.7-7.7-5.7-11.5-8.6l-2.6-2.1c-40.2-32.3-72-76.5-87.2-126.5
		c-15.9-52-12.5-110.2,15.1-157.5 M558,51.1c-24.4,36.6-26.7,81.9-9.7,122.3c17.9,42.8,54.4,76.5,97.1,92.3c1.8,0.7,3.5,1.2,5.4,1.9
		l2.4,0.8c2.6,0.8,5,1.7,7.6,2.3c117.9,23.2,149.9-61.6,158.4-74.1c-28,41.1-75,50.9-132.9,36.7c-4.5-1.1-9.5-2.8-14.1-4.3
		c-5.7-2.1-11.2-4.3-16.6-7c-10.3-5-20-11.1-29.1-18.1c-51.7-40.1-83.7-116.3-50.1-178.3"/>
	<g>
		<path class="st1" d="M297.6,826.9l-8,28.4L297.6,826.9L297.6,826.9z M338.7,888.3l-8.8-0.1L338.7,888.3z M336.5,930.5l-52.7,0.2
			L336.5,930.5z M347.6,888.4l-8.8-0.1L347.6,888.4z M341.2,926.9l9.2-35.1L341.2,926.9z M535.4,765.6L518.3,846L535.4,765.6z
			 M491.3,765.6l-12.9,60.1L491.3,765.6z"/>
		<path class="st1" d="M532.3,762h-36.6c-2.1,0-4.1,1.6-4.4,3.6l-26,120.2c-0.5,2-2.5,3.6-4.4,3.6H435c-25.6,0-22.7-17.7-17.3-42
			l0.2-0.8l3.1-16.5l1.3-6.8l11.8-57.7c0.4-2-0.9-3.6-2.9-3.6h-37.5c-2.2,0.1-4,1.5-4.4,3.6l-16.9,80.2c-9.3,42.4-6.8,83,43.8,84.2
			h1.4h79.4c2.1,0,4.1-1.6,4.4-3.6l34.2-160.9c0.5-2-0.9-3.6-2.9-3.6L532.3,762z M678.4,889.9c2.1,0,3.2,1.6,2.9,3.6l-3.6,17.4
			 M674.2,928.3l3.6-17.4L674.2,928.3z M669.8,931.9l-67.5,0.3L669.8,931.9z"/>
		<path class="st1" d="M580.4,867.5c0-1.9,2.2-5.2,4.2-5.2l-4.5-0.1C577.9,883,580.4,867.5,580.4,867.5z M605.6,932.2h-0.7H605.6z
			 M678.4,889.9c2.1,0,3.2,1.6,2.9,3.6l-4.2,20.2 M623,932.2h-0.2H623z M613.9,932.1h-0.5H613.9z M611.2,932.2h-0.9H611.2z
			 M608.5,932.2h-0.8H608.5z M613.5,932.1h-2.2H613.5z"/>
		<path class="st1" d="M622.8,932.2H614H622.8z M669.8,932l-46.8,0.3L669.8,932z M674.1,928.3l2.9-14.6L674.1,928.3L674.1,928.3z
			 M610.2,932.2h-1.7h1.9H610.2z M604.9,932.2h-2.6H604.9z M607.7,932.2h-2.2H607.7z M72.3,867.9l5.7-25.2l-6.4,28.8l-0.8,3.6
			L72.3,867.9L72.3,867.9z M140.3,761.6h-40.2c-2.2,0.1-4,1.5-4.5,3.6L88,798.7c-0.5,1.5,0.4,3,1.9,3.5c0.3,0.1,0.7,0.1,0.9,0.1
			h40.5c2.1,0,4.1-1.6,4.4-3.6l7.4-33.6C143.7,763.2,142.4,761.5,140.3,761.6L140.3,761.6z M131.6,817.5L119.7,872L131.6,817.5z
			 M14.8,998.2l33.2,0.3C38.2,998.5,22.1,998.3,14.8,998.2L14.8,998.2z"/>
		<path class="st1" d="M83.6,817.5l-5.7,25.2L83.6,817.5z M128.7,813.9H88.1c-2.2,0.1-4,1.5-4.5,3.6l-11.3,50.4l-1.6,7.3l-10.9,51.4
			c-0.6,2.4-1.2,4.8-2,7.1c0,0-7.6,22.5-20.3,22.3l-12.6-0.3c-2.1,0.1-4,1.5-4.5,3.5L12,994.5c-0.5,1.5,0.4,3,1.9,3.5
			c0.3,0.1,0.7,0.1,0.9,0.1l33.2,0.3c31.8,0,48.5-17.6,59.3-68.2l24.4-112.6C132.1,815.6,130.8,814,128.7,813.9L128.7,813.9z
			 M704.2,930.2c-2.1,0-3.2-1.6-2.9-3.6l30.4-142.7 M746.5,926.5l12.4-61L746.5,926.5z"/>
		<path class="st1" d="M701.6,928.4c-0.3-1-0.1-3.4,0.3-5.4l14.5-67.8l-15.2,71.4c-0.5,2,0.9,3.6,2.9,3.6h3.7
			C705.8,930.2,701.9,929.3,701.6,928.4z M744,929.3c-1.1,0.5-3.7,0.9-5.7,0.9h3.7c2.1-0.1,4-1.6,4.4-3.6l0.8-3.6
			C746.9,924.9,745.1,928.9,744,929.3L744,929.3z M752.6,896l5.5-26.8L752.6,896z M872.9,793.3l1.7,6.9c0.5,2-0.9,3.6-2.8,3.6"/>
		<path class="st1" d="M747.3,922.9l5.4-26.8L747.3,922.9z M871.3,786.1l1.7,7.1L871.3,786.1z M758.1,869.2l1.5-7.2l5.9-27.2
			l-6.6,30.8L758.1,869.2L758.1,869.2z M732.1,781.4l-1.2,6l-14.5,67.8l15.2-71.4L732.1,781.4L732.1,781.4z"/>
		<path class="st1" d="M874.6,800.3l-1.7-6.9l-2.5-10.9c-3.3-12.8-12.9-20.1-33.9-20.1l-96.6-0.1c-2.2,0.1-4,1.5-4.4,3.6l-1.5,7.1
			l-2.2,10.7l-29.7,139.1c-0.5,2-0.6,4.3-0.3,5.4c0.3,1,4.2,1.8,6.1,1.8h30.5c2.1,0,4.6-0.4,5.7-0.9c1.1-0.5,2.7-4.3,3.2-6.4
			l11.6-57.3l12.4-58c0.5-2,2.5-3.6,4.4-3.6h96C873.8,803.8,875.1,802.2,874.6,800.3L874.6,800.3z M998.2,737.6h-7.4h-30.7
			c-2.3,0.1-4.3,1.2-5.8,3l-68,99.6c-1.1,1.7-2.5,1.4-2.9-0.6l-5-21.9c-0.6-2.1-2.4-3.5-4.5-3.6h-43.7c-2.1,0-3.2,1.6-2.6,3.6
			l19.5,68.6c0.6,2,0.6,5.2,0.1,7.2l-8.7,33.2c-0.5,1.4,0.3,2.9,1.7,3.4c0.4,0.1,0.8,0.2,1.1,0.1h43.3c2.1,0,4.2-1.6,4.6-3.6
			l8.7-33.2c0.7-2.4,1.7-4.5,3.1-6.5l110.5-146.5c1.2-1.6,0.6-2.9-1.5-2.9l-11.6,0.1L998.2,737.6z M651,823.5
			c-0.3,2.2-2.3,3.8-4.3,3.8h-55.4c-1.9,0-2.9-1.3-2.6-2.9V824l0.3-0.9c5.4-14.1,16.1-23.3,36.3-23.3
			C648.1,799.8,652.6,811,651,823.5L651,823.5z M634.8,759.6c-71.1,0-88,43.2-97.4,86.8c-9.5,44.4-8.6,85.9,64.9,85.9h11.6h9
			l46.8-0.3c2.1-0.1,3.9-1.6,4.4-3.6l7.1-34.8c0.4-2-0.9-3.6-2.9-3.6h-66.2c-26.3,0-34.1-7-31.3-27.5h105.8c1.7,0,3.3-1,3.9-2.7
			c0.1-0.3,0.2-0.6,0.3-0.9C706.5,799.5,702,759.6,634.8,759.6L634.8,759.6z M298.6,823.3l-1,3.5l-8,28.4l-8,28.3
			c-0.7,2.1-2.6,3.5-4.7,3.6h-42.2c-32,0-39.9-25-32-62.1c7.7-37.8,23.2-61.3,54.6-63.7C300.4,757.9,309,788.2,298.6,823.3
			L298.6,823.3z M327.6,884.8c0,0,19.9-48.4,24.5-76.4c6.1-37.4-12.6-91.7-84.9-91.7c-71.9,0-103.2,51.8-115.1,108.2
			c-11.9,56.7,3.7,106.5,75.2,106l109.2-0.4c2.2-0.1,4-1.5,4.6-3.6l9.2-35.1c0.5-1.4-0.3-2.9-1.7-3.4c-0.4-0.1-0.8-0.2-1.1-0.2
			l-17.6-0.1c-1.7,0-2.7-1.1-2.6-2.6C327.3,885.5,327.4,885.2,327.6,884.8L327.6,884.8z"/>
		<path class="st1" d="M683.7,852.4c0,1.3-1,2.5-2.5,2.5c-1.3,0-2.5-1-2.5-2.5c0-1.4,1-2.5,2.5-2.5
			C682.7,850,683.7,851.1,683.7,852.4z"/>
	</g>
	<rect y="0" class="st2" width="1024" height="1024"/>
</g>
</svg>
