<?xml version="1.0" encoding="utf-8"?>
<!-- Generator: Adobe Illustrator 23.0.3, SVG Export Plug-In . SVG Version: 6.00 Build 0)  -->
<svg version="1.1" id="Layer_1" xmlns="http://www.w3.org/2000/svg" xmlns:xlink="http://www.w3.org/1999/xlink" x="0px" y="0px"
	 viewBox="0 0 1024 1024" style="enable-background:new 0 0 1024 1024;" xml:space="preserve">
<style type="text/css">
	.st0{fill:#FFFFFF;}
	.st1{fill:none;}
</style>
<g>
	<path class="st0" d="M442.7,705.6h-349c-8.1,0-14.7-6.6-14.7-14.7V123.1c0-8.1,6.6-14.7,14.7-14.7h836.6c8.1,0,14.7,6.6,14.7,14.7
		v124.3c24.5,2.9,47.5,10.9,67,24.1V123.1c0-45.1-36.7-81.7-81.7-81.7H93.7C48.7,41.4,12,78,12,123.1v567.7
		c0,45.1,36.7,81.7,81.7,81.7h280.4V882h-44.2c-27.7,0-50.2,22.5-50.2,50.2c0,27.8,22.5,50.2,50.2,50.2h141
		c-17.6-24.8-28.3-54.9-28.3-87.6L442.7,705.6L442.7,705.6z"/>
	<path class="st0" d="M723.8,931.9v-72.4H576.6V397.3c0-9.8,7.9-17.7,17.7-17.7h333c9.7,0,17.7,7.9,17.7,17.7v143h25.1
		c15.3,0,29.5,4.4,41.9,11.7V397.3c0-46.7-38-84.7-84.6-84.7h-333c-46.7,0-84.6,38-84.6,84.7V895c0,46.7,38,84.7,84.6,84.7H739
		C729.7,966.4,723.8,948,723.8,931.9z"/>
	<path class="st0" d="M970.1,582.2H807.6c-23.1,0-41.9,18.8-41.9,41.9v307.7c0,23.1,18.8,41.9,41.9,41.9h162.5
		c23.1,0,41.9-18.8,41.9-41.9V624.2C1012,601.1,993.2,582.2,970.1,582.2z M815.9,632.5h145.8v266H815.9V632.5z M888.9,953.5
		c-4.6,0-8.7-1.9-11.9-4.7c-3.6-3.2-5.9-7.8-5.9-13c0-9.8,7.9-17.7,17.7-17.7c9.7,0,17.7,7.9,17.7,17.7c0,5.2-2.3,9.7-5.8,13
		C897.6,951.6,893.4,953.5,888.9,953.5z"/>
</g>
<rect class="st1" width="1024" height="1024"/>
</svg>
